<svg width="12" height="8" viewBox="0 0 12 8" fill="none" xmlns="http://www.w3.org/2000/svg">
<path d="M1.85658 0.521404C1.48712 0.110894 0.854827 0.0776155 0.444317 0.447075C0.0338064 0.816534 0.000528097 1.44882 0.369987 1.85933L1.85658 0.521404ZM5.61328 6.19037L4.86999 6.85933C5.05963 7.07005 5.32979 7.19037 5.61328 7.19037C5.89677 7.19037 6.16693 7.07005 6.35658 6.85933L5.61328 6.19037ZM10.8566 1.85933C11.226 1.44882 11.1928 0.816534 10.7822 0.447075C10.3717 0.0776155 9.73945 0.110894 9.36999 0.521404L10.8566 1.85933ZM0.369987 1.85933L4.86999 6.85933L6.35658 5.5214L1.85658 0.521404L0.369987 1.85933ZM6.35658 6.85933L10.8566 1.85933L9.36999 0.521404L4.86999 5.5214L6.35658 6.85933Z" fill="#242323"/>
</svg>
